<svg width="18" height="18" viewBox="0 0 18 18" fill="none" xmlns="http://www.w3.org/2000/svg">
<path d="M14.0247 12.8838L5.10506 3.4488C5.10506 3.36108 5.02282 3.08697 4.97348 2.76899C4.94732 2.21237 4.73714 1.68017 4.37591 1.25588C3.73449 0.641863 2.84087 0.20328 2.1501 0.39516L2.98889 1.28329C3.11298 1.39632 3.21269 1.53349 3.28193 1.6864C3.35116 1.83931 3.38846 2.00474 3.39154 2.17256C3.39462 2.34038 3.36341 2.50707 3.29983 2.66241C3.23626 2.81776 3.14164 2.95849 3.02179 3.076C2.89748 3.18502 2.75208 3.26732 2.59463 3.31778C2.43718 3.36824 2.27103 3.38579 2.10651 3.36934C1.94199 3.35289 1.78261 3.30278 1.63827 3.22214C1.49393 3.1415 1.36771 3.03204 1.26745 2.90057L0.428663 2.01244C0.170996 2.69224 0.582168 3.60778 1.15233 4.2821C1.55846 4.67398 2.08269 4.92067 2.64351 4.98384C3.02727 5.07155 3.35072 5.16475 3.35072 5.16475L12.232 14.5669C12.1514 14.9343 12.1621 15.316 12.2635 15.6782C12.3648 16.0405 12.5536 16.3724 12.8132 16.6447C13.0137 16.8585 13.2543 17.0307 13.5214 17.1515C13.7885 17.2724 14.0767 17.3394 14.3697 17.3488C14.6627 17.3582 14.9546 17.3099 15.2289 17.2064C15.5032 17.103 15.7544 16.9466 15.9682 16.7461C16.182 16.5456 16.3543 16.3049 16.4751 16.0379C16.5959 15.7708 16.6629 15.4825 16.6724 15.1896C16.6818 14.8966 16.6334 14.6046 16.53 14.3304C16.4266 14.0561 16.2701 13.8049 16.0696 13.591C15.8122 13.3154 15.4914 13.1069 15.135 12.9836C14.7786 12.8604 14.3974 12.8261 14.0247 12.8838Z" fill="white" stroke="#363A45" stroke-width="0.7" stroke-linecap="round" stroke-linejoin="round"/>
<path d="M15.9444 1.22185L15.4784 0.755859L15.3688 0.865505L12.9511 2.68014L13.2416 2.9707L8.81742 7.41684L7.9238 6.52871L7.37558 7.07694L7.60035 7.62517L7.05212 8.1734L0.824237 14.4451C0.565453 14.7051 0.420166 15.0569 0.420166 15.4237C0.420166 15.7905 0.565453 16.1424 0.824237 16.4023L0.988706 16.5723C1.11752 16.7012 1.2705 16.8035 1.43888 16.8733C1.60727 16.9431 1.78776 16.9791 1.97004 16.9791C2.15232 16.9791 2.33281 16.9431 2.50119 16.8733C2.66957 16.8035 2.82255 16.7012 2.95137 16.5723L9.74393 9.81809L10.2922 10.0429L10.8404 9.49463L9.95225 8.6065L14.4422 4.16036L14.7383 4.45092L16.5694 2.04968L16.6735 1.94003L16.2021 1.46856L15.9444 1.22185Z" fill="white" stroke="#363A45" stroke-width="0.7" stroke-linecap="round" stroke-linejoin="round"/>
<path d="M8.41381 8.58561L8.10496 8.27344L7.95552 8.4262L8.03522 8.62214L7.83596 8.82139L4.24075 12.4299C4.19557 12.4747 4.1597 12.5279 4.13522 12.5867C4.11075 12.6454 4.09814 12.7083 4.09814 12.7719C4.09814 12.8356 4.11075 12.8985 4.13522 12.9572C4.1597 13.016 4.19557 13.0692 4.24075 13.114L4.30053 13.1738C4.3453 13.219 4.39858 13.2548 4.45729 13.2793C4.516 13.3038 4.57898 13.3164 4.64258 13.3164C4.70619 13.3164 4.76917 13.3038 4.82788 13.2793C4.88659 13.2548 4.93987 13.219 4.98464 13.1738L8.78907 9.37931L8.98169 9.45902L9.13113 9.30625L8.81896 8.99408L8.41381 8.58561Z" fill="#00C65E"/>
<path d="M15.3459 15.7015C15.2284 15.888 15.0581 16.0352 14.8567 16.1244C14.6552 16.2136 14.4317 16.2408 14.2147 16.2024C13.9978 16.164 13.7971 16.0619 13.6385 15.909C13.4798 15.7561 13.3703 15.5594 13.3239 15.344C13.2775 15.1286 13.2964 14.9043 13.3781 14.6997C13.4597 14.495 13.6005 14.3194 13.7825 14.1951C13.9644 14.0708 14.1793 14.0036 14.3996 14.002C14.62 14.0004 14.8358 14.0644 15.0195 14.186C15.1406 14.264 15.245 14.3651 15.3269 14.4835C15.4089 14.6019 15.4666 14.7353 15.4969 14.8761C15.5273 15.0169 15.5295 15.1622 15.5036 15.3039C15.4777 15.4455 15.4241 15.5806 15.3459 15.7015Z" fill="#00C65E"/>
</svg>
