<svg width="24" height="24" viewBox="0 0 24 24" fill="none" xmlns="http://www.w3.org/2000/svg">
<circle cx="11.6067" cy="11.6067" r="11.1067" transform="rotate(-90 11.6067 11.6067)" fill="white" stroke="#00C65E"/>
<path fill-rule="evenodd" clip-rule="evenodd" d="M14.5282 12.1914L9.85473 16.865C9.53207 17.1877 9.00891 17.1877 8.68625 16.865C8.36358 16.5423 8.3636 16.0192 8.68626 15.6965L12.7756 11.6072L8.68584 7.51748C8.36318 7.19482 8.36319 6.67166 8.68585 6.349C9.00851 6.02634 9.53167 6.02633 9.85433 6.34899L14.5092 11.0039C14.5158 11.01 14.5218 11.0165 14.5282 11.0229C14.8101 11.3052 14.8457 11.7412 14.6341 12.0618C14.6038 12.1076 14.5685 12.151 14.5282 12.1914Z" fill="#00C65E"/>
</svg>
