<svg width="100" height="104" viewBox="0 0 100 104" fill="none" xmlns="http://www.w3.org/2000/svg">
<g clip-path="url(#clip0_1690_38658)">
<path opacity="0.2" d="M93.062 85.4882C91.0939 100.054 75.3556 108.337 62.2347 101.713L19.2872 80.028C3.77502 72.1958 3.58846 50.112 18.9661 42.0188L68.3555 16.0252C83.7331 7.93198 101.831 20.5892 99.5039 37.8101L93.062 85.4882Z" fill="#00C65E"/>
<path d="M55.8897 48.4488C63.2715 48.4488 69.2557 42.4646 69.2557 35.0828C69.2557 27.701 63.2715 21.7168 55.8897 21.7168C48.5078 21.7168 42.5237 27.701 42.5237 35.0828C42.5237 42.4646 48.5078 48.4488 55.8897 48.4488Z" fill="#FACFB0"/>
<path d="M53.843 48.4502H57.928C60.7539 48.4502 63.552 49.0068 66.1628 50.0882C68.7735 51.1696 71.1457 52.7547 73.1439 54.7528C75.1421 56.751 76.7271 59.1232 77.8085 61.734C78.8899 64.3447 79.4465 67.1429 79.4465 69.9687V74.4824C79.4465 76.8487 78.5065 79.1182 76.8333 80.7914C75.16 82.4647 72.8906 83.4047 70.5242 83.4047H41.238C38.8717 83.4047 36.6022 82.4647 34.929 80.7914C33.2557 79.1182 32.3157 76.8487 32.3157 74.4824V69.9775C32.3145 67.1502 32.8706 64.3503 33.952 61.738C35.0334 59.1257 36.6191 56.7521 38.6183 54.7528C40.6175 52.7536 42.9911 51.168 45.6035 50.0865C48.2158 49.0051 51.0156 48.449 53.843 48.4502Z" fill="#35B661"/>
<path d="M41.1334 78.8035C39.9317 78.8035 38.7792 78.3261 37.9294 77.4764C37.0797 76.6266 36.6023 75.4741 36.6023 74.2724V66.0761C36.6023 64.8743 37.0797 63.7218 37.9294 62.8721C38.7792 62.0223 39.9317 61.5449 41.1334 61.5449C42.3352 61.5449 43.4877 62.0223 44.3374 62.8721C45.1872 63.7218 45.6646 64.8743 45.6646 66.0761V74.2461C45.668 74.8434 45.5534 75.4354 45.3272 75.9882C45.1011 76.5409 44.7679 77.0436 44.3468 77.4671C43.9257 77.8906 43.425 78.2267 42.8735 78.4561C42.322 78.6854 41.7307 78.8035 41.1334 78.8035V78.8035Z" stroke="#FFB762" stroke-width="4.18"/>
<path d="M53.5282 94.7142H27.2861C26.6375 94.7142 25.9952 94.5863 25.3961 94.3379C24.797 94.0894 24.2527 93.7252 23.7945 93.2662C23.3362 92.8071 22.973 92.2622 22.7256 91.6626C22.4782 91.0631 22.3514 90.4206 22.3526 89.772V72.2772C22.3503 71.6264 22.4767 70.9815 22.7247 70.3798C22.9727 69.7781 23.3373 69.2314 23.7975 68.7712C24.2577 68.311 24.8045 67.9464 25.4062 67.6984C26.0079 67.4504 26.6528 67.3239 27.3036 67.3262H53.5457C54.1965 67.3239 54.8414 67.4504 55.4431 67.6984C56.0448 67.9464 56.5916 68.311 57.0518 68.7712C57.512 69.2314 57.8766 69.7781 58.1246 70.3798C58.3726 70.9815 58.499 71.6264 58.4967 72.2772V89.772C58.4979 90.4235 58.37 91.0689 58.1204 91.6708C57.8708 92.2726 57.5044 92.8191 57.0425 93.2786C56.5805 93.7381 56.0322 94.1016 55.429 94.348C54.8258 94.5944 54.1798 94.7189 53.5282 94.7142Z" fill="#FFB762"/>
<path d="M54.2452 91.9764H28.7904C28.2257 91.9787 27.6661 91.8692 27.144 91.6542C26.6219 91.4392 26.1475 91.1229 25.7482 90.7236C25.3489 90.3243 25.0326 89.8499 24.8176 89.3278C24.6026 88.8057 24.4931 88.2461 24.4954 87.6814V74.5079C24.4931 73.9432 24.6026 73.3837 24.8176 72.8615C25.0326 72.3394 25.3489 71.865 25.7482 71.4657C26.1475 71.0664 26.6219 70.7502 27.144 70.5351C27.6661 70.3201 28.2257 70.2106 28.7904 70.2129H54.2452C54.8099 70.2106 55.3694 70.3201 55.8916 70.5351C56.4137 70.7502 56.8881 71.0664 57.2874 71.4657C57.6867 71.865 58.0029 72.3394 58.218 72.8615C58.433 73.3837 58.5425 73.9432 58.5402 74.5079V87.6814C58.52 88.8142 58.061 89.895 57.2599 90.6961C56.4587 91.4972 55.378 91.9562 54.2452 91.9764Z" fill="white"/>
<path d="M55.1374 80.8854H27.8981C26.9971 80.8854 26.133 80.5281 25.4951 79.8919C24.8572 79.2556 24.4977 78.3924 24.4954 77.4914V70.6947C24.4954 69.7923 24.8539 68.9268 25.492 68.2886C26.1301 67.6505 26.9956 67.292 27.8981 67.292H55.1374C56.0399 67.292 56.9054 67.6505 57.5435 68.2886C58.1817 68.9268 58.5402 69.7923 58.5402 70.6947V77.4914C58.531 78.3903 58.1693 79.2495 57.5329 79.8843C56.8965 80.5191 56.0363 80.8786 55.1374 80.8854Z" fill="#FFB762"/>
<path d="M41.5441 83.3332C41.2972 83.3367 41.0519 83.2915 40.8224 83.2001C40.5929 83.1088 40.3836 82.9732 40.2066 82.801C40.0295 82.6288 39.888 82.4234 39.7904 82.1965C39.6927 81.9696 39.6406 81.7257 39.6372 81.4787V77.8486C39.6395 77.3575 39.8356 76.8871 40.1829 76.5398C40.5302 76.1926 41.0005 75.9964 41.4917 75.9941H41.5441C42.0353 75.9964 42.5056 76.1926 42.8529 76.5398C43.2002 76.8871 43.3963 77.3575 43.3986 77.8486V81.4787C43.4021 81.7233 43.3566 81.966 43.2646 82.1926C43.1727 82.4192 43.0362 82.625 42.8633 82.7979C42.6904 82.9708 42.4846 83.1073 42.258 83.1992C42.0314 83.2912 41.7886 83.3367 41.5441 83.3332Z" fill="#FFB762"/>
<path d="M72.8339 31.3489H70.026C68.2241 24.6309 62.5907 19.7148 55.9077 19.7148C48.9798 19.7148 43.1716 24.9633 41.597 32.0924C41.5495 32.2841 41.526 32.481 41.5271 32.6785C41.52 32.8367 41.545 32.9948 41.6008 33.1432C41.6565 33.2915 41.7417 33.427 41.8512 33.5414C41.9608 33.6559 42.0924 33.747 42.2382 33.8091C42.3839 33.8713 42.5408 33.9032 42.6992 33.9031L72.8339 33.8506C73.1657 33.8506 73.4838 33.7188 73.7184 33.4842C73.953 33.2496 74.0848 32.9315 74.0848 32.5997C74.0848 32.268 73.953 31.9498 73.7184 31.7152C73.4838 31.4806 73.1657 31.3489 72.8339 31.3489Z" fill="#35B661"/>
</g>
<defs>
<clipPath id="clip0_1690_38658">
<rect width="100" height="104" fill="white"/>
</clipPath>
</defs>
</svg>
