<svg width="100" height="104" viewBox="0 0 100 104" fill="none" xmlns="http://www.w3.org/2000/svg">
<g clip-path="url(#clip0_1690_38668)">
<path opacity="0.2" d="M94.2983 85.4882C92.3303 100.054 76.5919 108.337 63.471 101.713L20.5236 80.028C5.01134 72.1958 4.82479 50.112 20.2025 42.0188L69.5918 16.0252C84.9694 7.93198 103.067 20.5892 100.74 37.8101L94.2983 85.4882Z" fill="#00C65E"/>
<path d="M55.2357 103.522L42.2357 95.4317L29.2357 103.522L31.2657 52.4717H53.2157L55.2357 103.522Z" fill="#FA9458"/>
<path d="M70.0658 53.1721C70.0658 55.7521 62.1258 57.0521 61.3658 59.3821C60.6058 61.7121 66.2158 67.5121 64.7458 69.5221C63.2758 71.5321 56.0858 67.9621 54.0558 69.4421C52.0258 70.9221 53.2558 78.8521 50.8358 79.6321C48.4158 80.4121 44.8358 73.2721 42.2358 73.2721C39.6358 73.2721 35.9758 80.3921 33.6358 79.6321C31.2958 78.8721 32.4158 70.9021 30.4158 69.4421C28.4158 67.9821 21.1958 71.5621 19.7158 69.5221C18.2358 67.4821 23.8958 61.8021 23.1158 59.3821C22.3358 56.9621 14.4158 55.7521 14.4158 53.1721C14.4158 50.5921 22.3558 49.2821 23.1158 46.9521C23.8758 44.6221 18.2658 38.8221 19.7258 36.8121C21.1858 34.8021 28.4158 38.3721 30.4158 36.9021C32.4158 35.4321 31.2258 27.4821 33.6358 26.7021C36.0458 25.9221 39.6358 33.0621 42.2358 33.0621C44.8358 33.0621 48.5058 25.9421 50.8358 26.7021C53.1658 27.4621 52.0458 35.4321 54.0558 36.9021C56.0658 38.3721 63.2758 34.7721 64.7458 36.8121C66.2158 38.8521 60.5858 44.5321 61.4158 46.9521C62.2458 49.3721 70.0658 50.5821 70.0658 53.1721Z" fill="#FFB663"/>
<path d="M42.2358 65.6319C49.1172 65.6319 54.6958 60.0534 54.6958 53.1719C54.6958 46.2904 49.1172 40.7119 42.2358 40.7119C35.3543 40.7119 29.7758 46.2904 29.7758 53.1719C29.7758 60.0534 35.3543 65.6319 42.2358 65.6319Z" fill="white"/>
<path d="M66.2958 33.0825C65.4454 32.289 64.3148 31.8655 63.1523 31.9049C61.9899 31.9442 60.8906 32.4433 60.0958 33.2925L43.1958 51.5825L38.4158 44.8625C37.714 43.9799 36.6995 43.4011 35.5826 43.2462C34.4657 43.0913 33.332 43.3721 32.4165 44.0304C31.501 44.6887 30.874 45.6741 30.6653 46.7822C30.4566 47.8904 30.6824 49.0363 31.2958 49.9825L38.9258 60.5625C39.1487 61.0006 39.4504 61.3938 39.8158 61.7225C40.5665 62.4193 41.5422 62.8238 42.5658 62.8625C43.3153 62.9256 44.0679 62.7863 44.7452 62.4591C45.4224 62.1319 45.9994 61.6289 46.4158 61.0025L66.5158 39.2925C67.3086 38.4391 67.7306 37.3061 67.6894 36.142C67.6482 34.9779 67.147 33.8777 66.2958 33.0825Z" fill="#35B661"/>
</g>
<defs>
<clipPath id="clip0_1690_38668">
<rect width="100" height="104" fill="white"/>
</clipPath>
</defs>
</svg>
