<svg width="100" height="104" viewBox="0 0 100 104" fill="none" xmlns="http://www.w3.org/2000/svg">
<g clip-path="url(#clip0_1690_38663)">
<path opacity="0.2" d="M93.0503 85.4882C91.0822 100.054 75.3438 108.337 62.223 101.713L19.2755 80.028C3.7633 72.1958 3.57674 50.112 18.9544 42.0188L68.3437 16.0252C83.7214 7.93198 101.819 20.5892 99.4922 37.8101L93.0503 85.4882Z" fill="#FFB762"/>
<path d="M40.7143 22.8882C36.7181 22.818 32.2017 18.651 28.5838 19.7513C24.9659 20.8515 23.4526 26.8913 20.3076 29.1152C17.1627 31.3391 10.9674 30.5315 8.63824 33.6099C6.30909 36.6882 8.74465 42.2949 7.45593 45.9585C6.16721 49.6221 0.787703 52.4547 0.716764 56.3992C0.645826 60.3438 5.98987 63.4924 7.10124 67.0741C8.21261 70.6558 5.647 76.356 7.81062 79.4695C9.97425 82.583 16.2287 82.068 19.3263 84.3739C22.424 86.6797 23.559 92.7077 27.2714 93.9719C30.9839 95.236 35.5476 91.1744 39.5084 91.2446C43.4691 91.3149 48.0092 95.4818 51.6743 94.3815C55.3395 93.2813 56.7937 87.2416 59.9505 85.0176C63.1073 82.7937 69.2907 83.6013 71.6554 80.5347C74.02 77.468 71.549 71.8497 72.8377 68.186C74.1264 64.5224 79.4586 61.7015 79.5295 57.7219C79.6005 53.7422 74.2564 50.6287 73.1451 47.047C72.0337 43.4654 74.6111 37.7768 72.4002 34.6633C70.1893 31.5498 63.9822 32.0648 60.8845 29.759C57.7869 27.4531 56.6518 21.4134 52.9394 20.161C49.2269 18.9085 44.6987 22.9584 40.7143 22.8882Z" fill="#00C65E"/>
<path d="M40.6434 26.6802C37.0965 26.6802 33.0766 22.9112 29.8607 23.8827C26.6448 24.8542 25.297 30.2267 22.5067 32.1697C19.7165 34.1128 14.2306 33.469 12.1261 36.1962C10.0216 38.9235 12.2206 43.9214 11.0856 47.1754C9.95061 50.4293 5.17408 52.9693 5.0795 56.5393C4.98491 60.1093 9.80874 62.8365 10.7664 66.0319C11.7241 69.2273 9.46587 74.2253 11.4285 77.0345C13.3911 79.8437 18.9125 79.3755 21.6673 81.4121C24.4221 83.4488 25.427 88.8213 28.7612 89.945C32.0953 91.0686 36.056 87.4518 39.6029 87.4518C43.1499 87.4518 47.1697 91.2208 50.3856 90.2493C53.6015 89.2778 54.9493 83.9404 57.7396 81.9505C60.5298 79.9607 66.0157 80.663 68.1203 77.9358C70.2248 75.2085 68.0375 70.2106 69.1607 66.9449C70.2839 63.6792 75.0722 61.1627 75.1668 57.6512C75.2614 54.1398 70.4376 51.3423 69.4917 48.1586C68.5459 44.9749 70.7805 39.9652 68.8178 37.1443C66.8552 34.3234 61.3456 34.8033 58.5908 32.7784C55.8361 30.7535 54.8193 25.416 51.5561 24.2455C48.2929 23.0751 44.1903 26.7387 40.6434 26.6802Z" fill="#CCE6D6"/>
<path d="M46.8857 56.4121C47.3514 56.6448 47.8016 56.9068 48.2335 57.1963C48.8574 57.5978 49.4292 58.0734 49.9361 58.6126C50.501 59.2768 50.9523 60.0281 51.2721 60.8366C51.6921 61.8171 51.9015 62.8734 51.8869 63.9383C51.8852 65.1991 51.5963 66.4433 51.0415 67.5782C50.4868 68.7131 49.6805 69.7095 48.6828 70.4931C46.3051 72.4126 43.2937 73.3925 40.2293 73.2437C38.7833 73.2498 37.342 73.0808 35.9375 72.7404C34.7643 72.4955 33.6279 72.1021 32.5561 71.5699C31.7652 71.1258 31.0031 70.6333 30.2743 70.0951C29.7452 69.7446 29.2643 69.3275 28.8437 68.8544L28.3826 68.3511L32.4024 64.1607L32.6862 64.5119C32.9664 64.7978 33.2667 65.0638 33.5847 65.3078C34.0465 65.6891 34.541 66.0299 35.0626 66.3261C36.4386 67.08 37.9828 67.4823 39.5554 67.4966C40.9841 67.576 42.3965 67.1623 43.5516 66.3261C43.9921 65.9907 44.3467 65.5574 44.587 65.0613C44.8273 64.5652 44.9464 64.0202 44.9349 63.4701C44.9478 62.9211 44.8305 62.3767 44.5923 61.8807C44.3541 61.3846 44.0017 60.9509 43.5634 60.6142C42.4866 59.7929 41.1496 59.378 39.7919 59.4437H36.4341V53.9658H39.5554C40.6918 54.0246 41.8082 53.6521 42.6767 52.9241C43.0629 52.5825 43.3689 52.1613 43.5732 51.6902C43.7774 51.219 43.875 50.7093 43.859 50.1968C43.8703 49.7106 43.7697 49.2282 43.5648 48.7861C43.36 48.3441 43.0563 47.9539 42.6767 47.6452C41.8001 46.9349 40.6864 46.5758 39.5554 46.6386C38.4438 46.6324 37.3462 46.885 36.3513 47.376C35.5578 47.7384 34.8306 48.2289 34.1995 48.8274L33.5256 49.5414L29.4939 45.5617C29.5885 45.4447 29.7186 45.2808 29.8959 45.0818C30.281 44.6587 30.7002 44.2673 31.1492 43.9113C31.8092 43.3704 32.5221 42.8959 33.2773 42.495C35.4434 41.4497 37.8197 40.9016 40.2293 40.8915C42.9954 40.7564 45.7147 41.6357 47.867 43.3612C48.7843 44.1069 49.52 45.0476 50.0194 46.1135C50.5188 47.1794 50.7692 48.3431 50.7519 49.518C50.7617 50.3907 50.6011 51.2571 50.2789 52.0696C50.0273 52.7616 49.6595 53.4066 49.1912 53.9775C48.798 54.4301 48.3669 54.8491 47.9025 55.2299C47.5381 55.5163 47.1414 55.7599 46.7202 55.9556L46.2827 56.1663L46.8857 56.4121Z" fill="white"/>
</g>
<defs>
<clipPath id="clip0_1690_38663">
<rect width="100" height="104" fill="white"/>
</clipPath>
</defs>
</svg>
