<svg width="100" height="104" viewBox="0 0 100 104" fill="none" xmlns="http://www.w3.org/2000/svg">
<g clip-path="url(#clip0_1690_38673)">
<path opacity="0.2" d="M93.0503 85.4882C91.0822 100.054 75.3438 108.337 62.223 101.713L19.2755 80.028C3.7633 72.1958 3.57674 50.112 18.9544 42.0188L68.3437 16.0252C83.7214 7.93198 101.819 20.5892 99.4922 37.8101L93.0503 85.4882Z" fill="#FFB762"/>
<path d="M29.6656 33.2149C30.4666 32.4716 31.5866 32.1791 32.6488 32.4358L53.1132 37.3809C54.1747 37.6374 55.0373 38.4084 55.4108 39.4346L58.6756 48.403C59.1146 49.6088 59.1879 50.9174 58.8865 52.1648L49.9575 89.1159C49.5346 90.866 47.773 91.9419 46.0229 91.519L14.2347 83.8375C12.4846 83.4146 11.4087 81.6531 11.8316 79.9029L20.7581 42.9623C21.0593 41.7161 21.7212 40.5863 22.661 39.7142L29.6656 33.2149Z" fill="#00C65E"/>
<path d="M24.2083 33.8534C24.6814 32.8684 25.6164 32.1859 26.6987 32.0356L47.5521 29.1401C48.6338 28.9899 49.7188 29.3913 50.4423 30.2093L56.7656 37.3582C57.6158 38.3194 58.1634 39.5102 58.3399 40.7812L63.5682 78.4346C63.8158 80.218 62.5708 81.8644 60.7874 82.1121L28.3951 86.6098C26.6118 86.8574 24.9653 85.6124 24.7177 83.8291L19.4909 46.1863C19.3146 44.9164 19.5166 43.6227 20.0716 42.467L24.2083 33.8534Z" fill="#CCEFDB"/>
<path d="M40.0301 57.8764C39.679 58.3355 39.2403 58.7205 38.7394 59.009C38.2386 59.2975 37.6855 59.4839 37.1122 59.5574C36.5389 59.6308 35.9567 59.5899 35.3993 59.437C34.8418 59.284 34.3203 59.0221 33.8647 58.6663C33.4096 58.3422 33.0264 57.9275 32.7393 57.4482C32.4522 56.9688 32.2673 56.4353 32.1963 55.8811C32.1253 55.3269 32.1697 54.764 32.3267 54.2278C32.4837 53.6915 32.7499 53.1936 33.1086 52.7652C33.4598 52.3061 33.8985 51.9211 34.3993 51.6326C34.9001 51.3441 35.4532 51.1577 36.0265 51.0842C36.5999 51.0108 37.1821 51.0517 37.7395 51.2046C38.2969 51.3576 38.8184 51.6195 39.274 51.9752C39.7291 52.2993 40.1123 52.7141 40.3994 53.1934C40.6866 53.6727 40.8715 54.2063 40.9425 54.7605C41.0135 55.3147 40.9691 55.8776 40.8121 56.4138C40.6551 56.95 40.3888 57.448 40.0301 57.8764ZM46.5348 52.8354C46.7754 52.8142 47.0173 52.8567 47.2362 52.9586C47.4551 53.0605 47.6434 53.2181 47.7821 53.4158C47.9208 53.6135 48.0051 53.8441 48.0265 54.0847C48.0478 54.3252 48.0055 54.5671 47.9038 54.7861L40.3247 71.2671C40.2261 71.4771 40.0756 71.6586 39.8874 71.7943C39.6992 71.93 39.4795 72.0155 39.249 72.0427C39.009 72.0661 38.7671 72.0254 38.548 71.9249C38.3288 71.8244 38.1401 71.6676 38.0012 71.4706C37.8622 71.2735 37.7779 71.0431 37.7569 70.8029C37.7359 70.5627 37.7789 70.3212 37.8815 70.103L45.5157 53.615C45.6079 53.4109 45.7492 53.2329 45.9271 53.0968C46.1049 52.9608 46.3138 52.8709 46.5348 52.8354ZM35.4449 56.7629C35.832 57.0505 36.3154 57.1769 36.7937 57.1156C37.272 57.0543 37.708 56.8101 38.0101 56.4343C38.2285 56.149 38.3576 55.8054 38.3811 55.4468C38.4046 55.0883 38.3215 54.7308 38.1422 54.4194C37.9629 54.1081 37.6954 53.8567 37.3736 53.697C37.0517 53.5374 36.6897 53.4765 36.3333 53.5222C35.9769 53.5679 35.642 53.718 35.3708 53.9537C35.0995 54.1893 34.9041 54.5 34.8091 54.8465C34.7141 55.193 34.7238 55.5599 34.8369 55.901C34.9501 56.242 35.1616 56.5419 35.4449 56.7629ZM45.7126 67.0294C46.0646 66.5698 46.5042 66.1845 47.0059 65.8957C47.5077 65.6069 48.0617 65.4204 48.6359 65.3468C49.2101 65.2732 49.7932 65.3141 50.3516 65.4671C50.9099 65.62 51.4324 65.882 51.889 66.238C52.3401 66.5653 52.7194 66.9813 53.0037 67.4607C53.288 67.94 53.4712 68.4725 53.542 69.0252C53.6129 69.578 53.5698 70.1394 53.4156 70.675C53.2613 71.2105 52.9991 71.7088 52.6451 72.1392C52.293 72.5987 51.8534 72.984 51.3517 73.2728C50.8499 73.5616 50.296 73.7482 49.7218 73.8218C49.1475 73.8953 48.5644 73.8545 48.0061 73.7015C47.4477 73.5485 46.9252 73.2865 46.4687 72.9305C46.0176 72.6033 45.6382 72.1872 45.3539 71.7079C45.0696 71.2285 44.8864 70.6961 44.8156 70.1433C44.7448 69.5905 44.7878 69.0291 44.9421 68.4936C45.0963 67.9581 45.3585 67.4598 45.7126 67.0294ZM50.328 68.1166C49.9381 67.837 49.4567 67.7154 48.9808 67.7764C48.5048 67.8374 48.0696 68.0764 47.7628 68.4453C47.4926 68.8382 47.3896 69.3223 47.4764 69.7912C47.4888 70.0419 47.5529 70.2874 47.6647 70.5121C47.7765 70.7369 47.9335 70.9361 48.126 71.0972C48.3185 71.2584 48.5422 71.3779 48.7831 71.4485C49.024 71.519 49.2769 71.5389 49.5259 71.507C49.7749 71.4751 50.0146 71.3921 50.2299 71.2631C50.4453 71.1341 50.6316 70.962 50.7772 70.7575C50.9229 70.5531 51.0246 70.3207 51.0761 70.075C51.1277 69.8293 51.1278 69.5757 51.0766 69.3299C51.0426 69.088 50.9597 68.8555 50.8329 68.6466C50.7061 68.4377 50.538 68.2569 50.339 68.1152L50.328 68.1166Z" fill="#FFB663"/>
<circle cx="37.804" cy="38.1243" r="4.31571" fill="white"/>
<path fill-rule="evenodd" clip-rule="evenodd" d="M29.8286 20.0212C29.0762 21.9804 28.854 24.6023 29.4235 27.4017C30.0888 30.6717 31.6481 33.2777 33.4063 34.7062C34.6606 35.7252 35.9194 36.0804 37.0313 35.8541C37.8041 35.6969 38.6399 34.8659 39.2608 34.1449C39.2608 34.1449 39.8752 34.2239 40.5115 34.758C41.1478 35.2922 41.3578 35.6438 41.3578 35.6438C40.4206 36.7321 38.9832 38.1306 37.5537 38.4215C35.4643 38.8466 33.4291 38.1004 31.7542 36.7396C29.4297 34.851 27.6154 31.6556 26.8562 27.924C26.2025 24.711 26.4259 21.5737 27.3828 19.0819C28.3332 16.6071 30.0955 14.5911 32.6016 14.0812C35.1076 13.5714 37.5175 14.7385 39.3594 16.6453C41.2138 18.5651 42.6453 21.3657 43.299 24.5787C43.7165 26.6305 43.7441 28.566 43.4878 30.396L40.9631 30.0974C41.176 28.5773 41.0929 26.8766 40.7317 25.101C40.1621 22.3016 38.9331 19.975 37.475 18.4655C36.0043 16.943 34.4495 16.3789 33.1239 16.6486C31.7983 16.9183 30.5875 18.045 29.8286 20.0212Z" fill="#00C65E"/>
</g>
<defs>
<clipPath id="clip0_1690_38673">
<rect width="100" height="104" fill="white"/>
</clipPath>
</defs>
</svg>
