<svg width="276" height="150" viewBox="0 0 276 150" fill="none" xmlns="http://www.w3.org/2000/svg">
<g clip-path="url(#clip0_1690_38891)">
<rect x="-0.374023" width="276.168" height="150" fill="white"/>
<g opacity="0.1" filter="url(#filter0_f_1690_38891)">
<ellipse cx="134.697" cy="109.463" rx="137.194" ry="130.154" fill="url(#paint0_linear_1690_38891)"/>
</g>
<rect x="55.7346" y="35.772" width="58.7756" height="65.3062" rx="6.53062" fill="white"/>
<path d="M66.9272 82.1315H84.3082C86.4723 82.1315 88.2266 80.3772 88.2266 78.2131V71.7571C88.2266 69.5931 89.9808 67.8389 92.1447 67.8387L97.7471 67.8383C99.911 67.8381 101.665 66.0838 101.665 63.9199V49.9355" stroke="#363A45" stroke-width="2.61225"/>
<path d="M94.9182 67.8472H73.5719C71.4079 67.8472 69.6536 66.0928 69.6536 63.9288V47.4121" stroke="#363A45" stroke-width="2.61225"/>
<circle cx="66.9267" cy="81.2682" r="2.07316" fill="white" stroke="#00C65E" stroke-width="1.30612"/>
<circle cx="88.4894" cy="67.8483" r="4.19347" fill="#00C65E"/>
<circle cx="101.664" cy="49.0392" r="2.07316" fill="white" stroke="#00C65E" stroke-width="1.30612"/>
<path d="M101.664 64.0371V84.5061" stroke="#363A45" stroke-width="2.61225"/>
<circle cx="101.666" cy="86.1599" r="4.37964" fill="#00C65E"/>
<circle cx="69.6541" cy="50.6926" r="4.37964" fill="#00C65E"/>
<circle cx="109.286" cy="40.997" r="1.30612" fill="#00C65E"/>
<circle cx="60.9594" cy="40.997" r="1.30612" fill="#00C65E"/>
<circle cx="109.286" cy="95.8535" r="1.30612" fill="#00C65E"/>
<circle cx="60.9594" cy="95.8535" r="1.30612" fill="#00C65E"/>
<rect x="160.91" y="35.772" width="58.7756" height="65.3062" rx="6.53062" fill="white"/>
<path d="M208.491 54.7206H191.11C188.946 54.7206 187.192 56.4749 187.192 58.639V65.095C187.192 67.2589 185.438 69.0132 183.274 69.0134L177.671 69.0138C175.507 69.014 173.753 70.7682 173.753 72.9322V86.9165" stroke="#363A45" stroke-width="2.61225"/>
<path d="M180.501 69.0049H201.847C204.011 69.0049 205.765 70.7592 205.765 72.9233V89.4399" stroke="#363A45" stroke-width="2.61225"/>
<circle cx="208.492" cy="55.5838" r="2.07316" transform="rotate(180 208.492 55.5838)" fill="white" stroke="#00C65E" stroke-width="1.30612"/>
<circle cx="186.929" cy="69.0038" r="4.19347" transform="rotate(180 186.929 69.0038)" fill="#00C65E"/>
<circle cx="173.755" cy="87.8128" r="2.07316" transform="rotate(180 173.755 87.8128)" fill="white" stroke="#00C65E" stroke-width="1.30612"/>
<path d="M173.754 72.8149V52.346" stroke="#363A45" stroke-width="2.61225"/>
<circle cx="173.753" cy="50.6921" r="4.37964" transform="rotate(180 173.753 50.6921)" fill="#00C65E"/>
<circle cx="205.765" cy="86.1594" r="4.37964" transform="rotate(180 205.765 86.1594)" fill="#00C65E"/>
<circle cx="214.461" cy="40.997" r="1.30612" fill="#00C65E"/>
<circle cx="166.134" cy="40.997" r="1.30612" fill="#00C65E"/>
<circle cx="214.461" cy="95.8535" r="1.30612" fill="#00C65E"/>
<circle cx="166.134" cy="95.8535" r="1.30612" fill="#00C65E"/>
<path d="M130.792 76.1753C130.349 76.489 129.988 76.904 129.739 77.3857C129.489 77.8673 129.358 78.4017 129.357 78.9442C129.356 79.4866 129.485 80.0215 129.733 80.504C129.981 80.9866 130.34 81.4029 130.782 81.7182L136.154 86.4925C136.662 86.8558 137.26 87.0723 137.883 87.1182C138.506 87.1641 139.13 87.0375 139.685 86.7525C140.241 86.4675 140.708 86.035 141.034 85.5023C141.36 84.9697 141.533 84.3576 141.534 83.733L141.553 74.2074C141.554 73.5829 141.383 72.9703 141.059 72.4365C140.735 71.9027 140.27 71.4684 139.715 71.1812C139.161 70.894 138.538 70.7649 137.915 70.808C137.292 70.8512 136.693 71.065 136.183 71.426L130.792 76.1753Z" fill="#00C65E"/>
<rect width="11.4557" height="7.22392" rx="2.61225" transform="matrix(-1 0 0 1 149.118 75.4595)" fill="#00C65E"/>
<path d="M147.793 52.7339C148.236 53.0476 148.597 53.4626 148.847 53.9443C149.096 54.4259 149.227 54.9603 149.228 55.5028C149.229 56.0452 149.1 56.5801 148.852 57.0626C148.604 57.5452 148.245 57.9615 147.803 58.2768L142.431 63.051C141.923 63.4144 141.325 63.6309 140.702 63.6768C140.079 63.7226 139.456 63.5961 138.9 63.3111C138.344 63.0261 137.878 62.5936 137.552 62.0609C137.225 61.5283 137.052 60.9162 137.051 60.2916L137.032 50.766C137.031 50.1415 137.202 49.5289 137.526 48.9951C137.851 48.4613 138.315 48.027 138.87 47.7398C139.424 47.4525 140.047 47.3235 140.67 47.3666C141.293 47.4098 141.892 47.6236 142.402 47.9846L147.793 52.7339Z" fill="#00C65E"/>
<rect x="129.467" y="52.0181" width="11.4557" height="7.22392" rx="2.61225" fill="#00C65E"/>
</g>
<defs>
<filter id="filter0_f_1690_38891" x="-40.4971" y="-58.6914" width="350.387" height="336.309" filterUnits="userSpaceOnUse" color-interpolation-filters="sRGB">
<feFlood flood-opacity="0" result="BackgroundImageFix"/>
<feBlend mode="normal" in="SourceGraphic" in2="BackgroundImageFix" result="shape"/>
<feGaussianBlur stdDeviation="19" result="effect1_foregroundBlur_1690_38891"/>
</filter>
<linearGradient id="paint0_linear_1690_38891" x1="173.902" y1="19.3971" x2="-6.84259" y2="185.935" gradientUnits="userSpaceOnUse">
<stop stop-color="#00C65E"/>
<stop offset="1" stop-color="#00C65E" stop-opacity="0"/>
</linearGradient>
<clipPath id="clip0_1690_38891">
<rect width="276" height="150" fill="white"/>
</clipPath>
</defs>
</svg>
