<svg width="276" height="166" viewBox="0 0 276 166" fill="none" xmlns="http://www.w3.org/2000/svg">
<rect x="-0.167969" y="-0.0878906" width="276.168" height="151.315" fill="white"/>
<g opacity="0.2" filter="url(#filter0_f_1690_40434)">
<ellipse cx="138" cy="91.3281" rx="101.014" ry="95.8315" fill="url(#paint0_linear_1690_40434)"/>
</g>
<rect x="110.001" y="38.6294" width="55.9985" height="62.2205" rx="6.22205" fill="#FFB762"/>
<path d="M155.333 56.6818H138.774C136.712 56.6818 135.041 58.3532 135.041 60.415V66.566C135.041 68.6277 133.369 70.2991 131.308 70.2992L125.97 70.2996C123.908 70.2998 122.237 71.9712 122.237 74.0329V87.3564" stroke="white" stroke-width="2.48882"/>
<path d="M128.666 70.2912H149.004C151.066 70.2912 152.737 71.9627 152.737 74.0245V89.7607" stroke="white" stroke-width="2.48882"/>
<circle cx="155.334" cy="56.6814" r="1.97521" transform="rotate(180 155.334 56.6814)" fill="white" stroke="white" stroke-width="1.24441"/>
<circle cx="134.79" cy="70.2903" r="3.99533" transform="rotate(180 134.79 70.2903)" fill="white"/>
<circle cx="122.239" cy="88.2107" r="1.97521" transform="rotate(180 122.239 88.2107)" fill="white" stroke="white" stroke-width="1.24441"/>
<path d="M122.238 73.9214V54.4196" stroke="white" stroke-width="2.48882"/>
<circle cx="122.237" cy="52.8439" r="4.1727" transform="rotate(180 122.237 52.8439)" fill="white"/>
<circle cx="152.736" cy="86.6354" r="4.1727" transform="rotate(180 152.736 86.6354)" fill="white"/>
<circle cx="161.021" cy="43.6077" r="1.24441" fill="#363A45"/>
<circle cx="114.978" cy="43.6077" r="1.24441" fill="#363A45"/>
<circle cx="161.021" cy="95.8723" r="1.24441" fill="#363A45"/>
<circle cx="114.978" cy="95.8723" r="1.24441" fill="#363A45"/>
<rect x="184.385" y="61.9556" width="34.0061" height="37.7846" rx="3.77846" transform="rotate(-90 184.385 61.9556)" fill="white"/>
<circle cx="187.408" cy="30.9723" r="0.755691" transform="rotate(-90 187.408 30.9723)" fill="#363A45"/>
<circle cx="187.408" cy="58.9328" r="0.755691" transform="rotate(-90 187.408 58.9328)" fill="#363A45"/>
<circle cx="219.147" cy="30.9723" r="0.755691" transform="rotate(-90 219.147 30.9723)" fill="#363A45"/>
<circle cx="219.147" cy="58.9328" r="0.755691" transform="rotate(-90 219.147 58.9328)" fill="#363A45"/>
<path d="M194.848 38.167L212.648 53.7425" stroke="#363A45" stroke-width="2.87075"/>
<circle cx="212.648" cy="53.6656" r="2.71775" transform="rotate(90 212.648 53.6656)" fill="white" stroke="#363A45" stroke-width="1.68867"/>
<circle cx="194.848" cy="37.8389" r="2.71775" transform="rotate(90 194.848 37.8389)" fill="white" stroke="#363A45" stroke-width="1.68867"/>
<path d="M192.521 21.0591L210.321 36.6346" stroke="#363A45" stroke-width="2.87075"/>
<circle cx="210.321" cy="36.5577" r="2.71775" transform="rotate(90 210.321 36.5577)" fill="white" stroke="#363A45" stroke-width="1.68867"/>
<circle cx="192.521" cy="20.731" r="2.71775" transform="rotate(90 192.521 20.731)" fill="white" stroke="#363A45" stroke-width="1.68867"/>
<path d="M196.083 56.4492L213.884 72.0247" stroke="#363A45" stroke-width="2.87075"/>
<circle cx="213.883" cy="71.9478" r="2.71775" transform="rotate(90 213.883 71.9478)" fill="white" stroke="#363A45" stroke-width="1.68867"/>
<circle cx="196.083" cy="56.1212" r="2.71775" transform="rotate(90 196.083 56.1212)" fill="white" stroke="#363A45" stroke-width="1.68867"/>
<rect x="53.8301" y="95.6445" width="34.0061" height="37.7846" rx="3.77846" transform="rotate(-90 53.8301 95.6445)" fill="white"/>
<circle cx="56.8533" cy="64.6608" r="0.755691" transform="rotate(-90 56.8533 64.6608)" fill="#363A45"/>
<circle cx="56.8533" cy="92.6213" r="0.755691" transform="rotate(-90 56.8533 92.6213)" fill="#363A45"/>
<circle cx="88.5918" cy="64.6608" r="0.755691" transform="rotate(-90 88.5918 64.6608)" fill="#363A45"/>
<circle cx="88.5918" cy="92.6213" r="0.755691" transform="rotate(-90 88.5918 92.6213)" fill="#363A45"/>
<path d="M64.2925 71.8555L82.0932 87.4309" stroke="#363A45" stroke-width="2.87075"/>
<circle cx="82.0928" cy="87.3541" r="2.71775" transform="rotate(90 82.0928 87.3541)" fill="white" stroke="#363A45" stroke-width="1.68867"/>
<circle cx="64.2925" cy="71.5274" r="2.71775" transform="rotate(90 64.2925 71.5274)" fill="white" stroke="#363A45" stroke-width="1.68867"/>
<path d="M61.965 54.7476L79.7657 70.323" stroke="#363A45" stroke-width="2.87075"/>
<circle cx="79.7652" cy="70.2462" r="2.71775" transform="rotate(90 79.7652 70.2462)" fill="white" stroke="#363A45" stroke-width="1.68867"/>
<circle cx="61.965" cy="54.4195" r="2.71775" transform="rotate(90 61.965 54.4195)" fill="white" stroke="#363A45" stroke-width="1.68867"/>
<path d="M65.5275 90.1372L83.3282 105.713" stroke="#363A45" stroke-width="2.87075"/>
<circle cx="83.3278" cy="105.635" r="2.71775" transform="rotate(90 83.3278 105.635)" fill="white" stroke="#363A45" stroke-width="1.68867"/>
<circle cx="65.5275" cy="89.8087" r="2.71775" transform="rotate(90 65.5275 89.8087)" fill="white" stroke="#363A45" stroke-width="1.68867"/>
<path fill-rule="evenodd" clip-rule="evenodd" d="M196.151 52.1777C194.367 52.1777 192.845 53.2974 192.248 54.8724H159.695C159.098 53.2978 157.576 52.1784 155.792 52.1784C153.487 52.1784 151.619 54.0466 151.619 56.3511C151.619 58.6557 153.487 60.5238 155.792 60.5238C157.576 60.5238 159.099 59.4034 159.696 57.8276H192.247C192.844 59.403 194.367 60.5231 196.151 60.5231C198.456 60.5231 200.324 58.6549 200.324 56.3504C200.324 54.0459 198.456 52.1777 196.151 52.1777ZM118.333 88.8357H85.7815C85.1852 90.4115 83.6622 91.5319 81.8775 91.5319C79.573 91.5319 77.7048 89.6637 77.7048 87.3592C77.7048 85.0547 79.573 83.1865 81.8775 83.1865C83.6613 83.1865 85.1837 84.3059 85.7806 85.8805H118.334C118.93 84.3054 120.453 83.1857 122.237 83.1857C124.542 83.1857 126.41 85.0539 126.41 87.3584C126.41 89.6629 124.542 91.5311 122.237 91.5311C120.453 91.5311 118.93 90.411 118.333 88.8357Z" fill="#F89358"/>
<defs>
<filter id="filter0_f_1690_40434" x="-1.0144" y="-42.5034" width="278.029" height="267.663" filterUnits="userSpaceOnUse" color-interpolation-filters="sRGB">
<feFlood flood-opacity="0" result="BackgroundImageFix"/>
<feBlend mode="normal" in="SourceGraphic" in2="BackgroundImageFix" result="shape"/>
<feGaussianBlur stdDeviation="19" result="effect1_foregroundBlur_1690_40434"/>
</filter>
<linearGradient id="paint0_linear_1690_40434" x1="166.867" y1="25.0134" x2="33.786" y2="147.633" gradientUnits="userSpaceOnUse">
<stop stop-color="#FFB762"/>
<stop offset="1" stop-color="#FFB762"/>
</linearGradient>
</defs>
</svg>
