<svg width="276" height="166" viewBox="0 0 276 166" fill="none" xmlns="http://www.w3.org/2000/svg">
<rect x="-2.34766" width="276.168" height="151.315" fill="white"/>
<g opacity="0.1" filter="url(#filter0_f_1690_40519)">
<ellipse cx="126.354" cy="89.696" rx="98.8556" ry="93.7834" fill="url(#paint0_linear_1690_40519)"/>
</g>
<rect x="96.1768" y="98.6641" width="61.4857" height="86.0449" rx="3.99574" transform="rotate(-90 96.1768 98.6641)" fill="#00C65E"/>
<circle cx="177.606" cy="42.6405" r="1.36635" transform="rotate(-90 177.606 42.6405)" fill="white"/>
<circle cx="177.606" cy="93.1971" r="1.36635" transform="rotate(-90 177.606 93.1971)" fill="white"/>
<circle cx="100.791" cy="42.6405" r="1.36635" transform="rotate(-90 100.791 42.6405)" fill="white"/>
<circle cx="100.791" cy="93.1971" r="1.36635" transform="rotate(-90 100.791 93.1971)" fill="white"/>
<path d="M115.968 47.8799L115.968 66.411C115.968 68.6748 117.803 70.51 120.067 70.51L126.82 70.51C129.084 70.51 130.919 72.345 130.919 74.6088L130.92 80.6895C130.92 82.9532 132.755 84.7882 135.019 84.7882L149.648 84.7882" stroke="white" stroke-width="2.7327"/>
<path d="M130.912 77.617L130.912 50.7739" stroke="white" stroke-width="2.7327"/>
<circle cx="115.971" cy="48.4467" r="2.16875" transform="rotate(90 115.971 48.4467)" fill="white" stroke="white" stroke-width="1.36635"/>
<circle cx="130.911" cy="71.005" r="4.38683" transform="rotate(90 130.911 71.005)" fill="white"/>
<circle cx="150.586" cy="84.7865" r="2.16875" transform="rotate(90 150.586 84.7865)" fill="white" stroke="white" stroke-width="1.36635"/>
<path d="M134.897 84.7871L113.484 84.7871" stroke="white" stroke-width="2.7327"/>
<circle cx="111.755" cy="84.7876" r="4.58157" transform="rotate(90 111.755 84.7876)" fill="white"/>
<circle cx="167.462" cy="76.6828" r="5.61983" transform="rotate(90 167.462 76.6828)" fill="white"/>
<path d="M131.364 63.8804H165.066C166.39 63.8804 167.463 64.9537 167.463 66.2778V76.6823" stroke="white" stroke-width="2.7171"/>
<path d="M148.115 63.6206V49.3296C148.115 48.0055 149.188 46.9321 150.512 46.9321H160.632" stroke="white" stroke-width="2.7171"/>
<circle cx="162.88" cy="47.8819" r="4.58157" transform="rotate(90 162.88 47.8819)" fill="white"/>
<circle cx="131.4" cy="49.2295" r="3.90769" transform="rotate(90 131.4 49.2295)" fill="white"/>
<path d="M152.228 32.3773C152.228 30.8326 150.976 29.5803 149.431 29.5803C147.886 29.5803 146.634 30.8326 146.634 32.3773L152.228 32.3773ZM152.228 39.1357L152.228 32.3773L146.634 32.3773L146.634 39.1357L152.228 39.1357Z" fill="#00C65E"/>
<path d="M131.49 32.3773C131.49 30.8326 130.238 29.5803 128.693 29.5803C127.148 29.5803 125.896 30.8326 125.896 32.3773L131.49 32.3773ZM131.49 39.1357L131.49 32.3773L125.896 32.3773L125.896 39.1357L131.49 39.1357Z" fill="#00C65E"/>
<path d="M110.752 32.3773C110.752 30.8326 109.5 29.5803 107.955 29.5803C106.41 29.5803 105.158 30.8326 105.158 32.3773L110.752 32.3773ZM110.752 39.1357L110.752 32.3773L105.158 32.3773L105.158 39.1357L110.752 39.1357Z" fill="#00C65E"/>
<path d="M172.966 32.3773C172.966 30.8326 171.714 29.5803 170.169 29.5803C168.624 29.5803 167.372 30.8326 167.372 32.3773L172.966 32.3773ZM172.966 39.1357L172.966 32.3773L167.372 32.3773L167.372 39.1357L172.966 39.1357Z" fill="#00C65E"/>
<path d="M152.289 102.587C152.289 104.132 151.037 105.384 149.492 105.384C147.947 105.384 146.695 104.132 146.695 102.587L152.289 102.587ZM152.289 95.8286L152.289 102.587L146.695 102.587L146.695 95.8286L152.289 95.8286Z" fill="#00C65E"/>
<path d="M131.551 102.587C131.551 104.132 130.299 105.384 128.754 105.384C127.209 105.384 125.957 104.132 125.957 102.587L131.551 102.587ZM131.551 95.8286L131.551 102.587L125.957 102.587L125.957 95.8286L131.551 95.8286Z" fill="#00C65E"/>
<path d="M110.813 102.587C110.813 104.132 109.561 105.384 108.016 105.384C106.471 105.384 105.219 104.132 105.219 102.587L110.813 102.587ZM110.813 95.8286L110.813 102.587L105.219 102.587L105.219 95.8286L110.813 95.8286Z" fill="#00C65E"/>
<path d="M173.027 102.587C173.027 104.132 171.775 105.384 170.23 105.384C168.685 105.384 167.433 104.132 167.433 102.587L173.027 102.587ZM173.027 95.8286L173.027 102.587L167.433 102.587L167.433 95.8286L173.027 95.8286Z" fill="#00C65E"/>
<path d="M111.981 84.4665L111.981 85.8914L111.458 85.8914L101.358 87.3304L101.358 85.9437L80.191 85.8914L80.1384 91.8175L77.5219 91.8175L76.75 89.9729L74.1336 89.9729L44.3059 89.8682C43.068 89.8655 41.8817 89.3725 41.0064 88.4973C40.1312 87.622 39.6382 86.4357 39.6355 85.1978L39.6224 84.3998C39.622 83.7847 39.7429 83.1755 39.9782 82.6071C40.2134 82.0387 40.5584 81.5223 40.9934 81.0873C41.4283 80.6524 41.9448 80.3074 42.5132 80.0721C43.0815 79.8369 43.6907 79.716 44.3059 79.7163L76.6323 79.6248L77.4042 77.7802L80.0206 77.7802L79.9811 83.6932L101.305 83.5885L101.318 82.1887L111.418 83.5493L111.928 83.5624L111.928 85.0134L111.981 84.4665Z" fill="#FFB762"/>
<path d="M164.019 47.5613L164.019 48.9861L164.543 48.9861L174.642 50.4252L174.642 49.0384L195.809 48.9861L195.862 54.9122L198.478 54.9122L199.25 53.0676L201.867 53.0676L231.694 52.963C232.932 52.9602 234.119 52.4673 234.994 51.592C235.869 50.7167 236.362 49.5304 236.365 48.2926L236.378 47.4945C236.378 46.8794 236.257 46.2702 236.022 45.7018C235.787 45.1335 235.442 44.617 235.007 44.182C234.572 43.7471 234.056 43.4021 233.487 43.1669C232.919 42.9316 232.31 42.8107 231.694 42.8111L199.368 42.7195L198.596 40.8749L195.98 40.8749L196.019 46.7879L174.695 46.6833L174.682 45.2835L164.582 46.644L164.072 46.6571L164.072 48.1081L164.019 47.5613Z" fill="#FFB762"/>
<defs>
<filter id="filter0_f_1690_40519" x="-10.5021" y="-42.0874" width="273.711" height="263.567" filterUnits="userSpaceOnUse" color-interpolation-filters="sRGB">
<feFlood flood-opacity="0" result="BackgroundImageFix"/>
<feBlend mode="normal" in="SourceGraphic" in2="BackgroundImageFix" result="shape"/>
<feGaussianBlur stdDeviation="19" result="effect1_foregroundBlur_1690_40519"/>
</filter>
<linearGradient id="paint0_linear_1690_40519" x1="154.603" y1="24.7986" x2="24.3667" y2="144.798" gradientUnits="userSpaceOnUse">
<stop stop-color="#00C65E"/>
<stop offset="1" stop-color="#00C65E" stop-opacity="0"/>
</linearGradient>
</defs>
</svg>
