<svg width="276" height="152" viewBox="0 0 276 152" fill="none" xmlns="http://www.w3.org/2000/svg">
<g clip-path="url(#clip0_1690_40572)">
<rect x="-0.0835876" y="-5.59717" width="276.168" height="151.315" fill="white"/>
<g opacity="0.2" filter="url(#filter0_f_1690_40572)">
<ellipse cx="137.679" cy="88.7601" rx="102.145" ry="96.9036" fill="url(#paint0_linear_1690_40572)"/>
</g>
<rect x="174.813" y="46.2075" width="23.6244" height="14.8975" rx="2.56391" fill="#00C65E"/>
<path d="M212.608 47.684C213.52 48.3309 214.265 49.1868 214.78 50.1801C215.294 51.1734 215.564 52.2754 215.566 53.3941C215.568 54.5128 215.302 55.6157 214.791 56.6109C214.28 57.6061 213.539 58.4646 212.628 59.1147L201.549 68.9605C200.502 69.7098 199.268 70.1563 197.984 70.2509C196.699 70.3455 195.413 70.0846 194.267 69.4968C193.121 68.909 192.159 68.017 191.487 66.9186C190.814 65.8202 190.457 64.5578 190.454 63.2698L190.415 43.6258C190.414 42.3379 190.766 41.0744 191.435 39.9736C192.103 38.8729 193.062 37.9773 194.205 37.3849C195.349 36.7926 196.633 36.5264 197.918 36.6154C199.203 36.7045 200.438 37.1454 201.489 37.8898L212.608 47.684Z" fill="#00C65E"/>
<path fill-rule="evenodd" clip-rule="evenodd" d="M173.994 49.9154C182.083 51.0954 188.296 58.0613 188.296 66.4782C188.296 75.7229 180.801 83.2172 171.557 83.2172C171.458 83.2172 171.36 83.2163 171.262 83.2147V83.2174H106.076V83.217C105.928 83.2203 105.78 83.222 105.632 83.222C94.7982 83.222 86.0159 74.4397 86.0159 63.6062C86.0159 54.3687 92.4011 46.6226 100.999 44.5407C101.909 29.9702 114.015 18.4346 128.815 18.4346C138.385 18.4346 146.828 23.258 151.847 30.6064C153.653 29.9397 155.605 29.5756 157.643 29.5756C166.888 29.5756 174.382 37.0699 174.382 46.3146C174.382 47.5507 174.248 48.7556 173.994 49.9154Z" fill="white"/>
<path fill-rule="evenodd" clip-rule="evenodd" d="M175.628 53.819C182.915 54.8816 188.511 61.1567 188.511 68.7388C188.511 77.0663 181.761 83.8172 173.433 83.8172C173.344 83.8172 173.256 83.8164 173.167 83.8149V83.8174H114.454C114.319 83.8204 114.183 83.822 114.047 83.822C104.288 83.822 96.3772 75.9109 96.3772 66.1521C96.3772 57.8312 102.129 50.8536 109.873 48.9781C110.694 35.8536 121.598 25.4629 134.929 25.4629C143.55 25.4629 151.156 29.8077 155.676 36.4269C157.304 35.8261 159.063 35.498 160.899 35.498C169.226 35.498 175.977 42.2488 175.977 50.5764C175.977 51.6895 175.857 52.7745 175.628 53.819Z" fill="#CBE3F9"/>
<ellipse cx="72.2292" cy="79.5283" rx="0.161106" ry="0.241167" fill="#C4C4C4"/>
<path d="M98.7632 87.413C101.905 81.1594 99.3222 73.5119 92.9934 70.332C86.6646 67.1521 78.9868 69.6438 75.8446 75.8974C72.7024 82.1511 75.2857 89.7986 81.6145 92.9785C87.9433 96.1584 95.621 93.6667 98.7632 87.413Z" stroke="#F89358" stroke-width="14.4996" stroke-miterlimit="10"/>
<path d="M78.54 68.1841L71.5304 78.3932L64.9914 74.9152L72.9213 63.3711L78.54 68.1841Z" fill="#F89358"/>
<path d="M71.2436 82.3413L76.6985 93.5589L70.4543 97.4133L64.2846 84.7243L71.2436 82.3413Z" fill="#F89358"/>
<path d="M80.0023 95.8178L92.4717 96.8288L92.7568 104.156L78.6572 103.011L80.0023 95.8178Z" fill="#F89358"/>
<path d="M96.0642 95.1251L103.074 84.916L109.608 88.3915L101.683 99.9381L96.0642 95.1251Z" fill="#F89358"/>
<path d="M103.362 80.971L97.9071 69.7535L104.151 65.8991L110.321 78.588L103.362 80.971Z" fill="#F89358"/>
<path d="M94.5986 67.4954L82.1292 66.4845L81.8441 59.157L95.9389 60.2993L94.5986 67.4954Z" fill="#F89358"/>
<circle cx="87.3039" cy="81.3982" r="7.38985" stroke="white" stroke-width="4.63582"/>
<path d="M121.385 82.7899C123.297 78.9849 121.725 74.332 117.874 72.3972C114.024 70.4624 109.352 71.9785 107.441 75.7834C105.529 79.5883 107.1 84.2413 110.951 86.1761C114.802 88.1109 119.473 86.5948 121.385 82.7899Z" stroke="#363A45" stroke-width="8.82202" stroke-miterlimit="10"/>
<path d="M109.084 71.0894L104.819 77.301L100.841 75.1849L105.666 68.161L109.084 71.0894Z" fill="#363A45"/>
<path d="M104.644 79.7049L107.963 86.53L104.163 88.8752L100.41 81.1548L104.644 79.7049Z" fill="#363A45"/>
<path d="M109.974 87.9036L117.561 88.5187L117.734 92.977L109.156 92.2805L109.974 87.9036Z" fill="#363A45"/>
<path d="M119.744 87.4845L124.009 81.273L127.985 83.3876L123.163 90.4129L119.744 87.4845Z" fill="#363A45"/>
<path d="M124.187 78.8684L120.868 72.0432L124.667 69.6981L128.421 77.4185L124.187 78.8684Z" fill="#363A45"/>
<path d="M118.856 70.6727L111.27 70.0576L111.096 65.5994L119.672 66.2944L118.856 70.6727Z" fill="#363A45"/>
</g>
<defs>
<filter id="filter0_f_1690_40572" x="-2.46564" y="-46.1436" width="280.289" height="269.807" filterUnits="userSpaceOnUse" color-interpolation-filters="sRGB">
<feFlood flood-opacity="0" result="BackgroundImageFix"/>
<feBlend mode="normal" in="SourceGraphic" in2="BackgroundImageFix" result="shape"/>
<feGaussianBlur stdDeviation="19" result="effect1_foregroundBlur_1690_40572"/>
</filter>
<linearGradient id="paint0_linear_1690_40572" x1="166.868" y1="21.7035" x2="32.299" y2="145.695" gradientUnits="userSpaceOnUse">
<stop stop-color="#FFB762"/>
<stop offset="1" stop-color="#FFB762"/>
</linearGradient>
<clipPath id="clip0_1690_40572">
<rect width="276" height="152" fill="white" transform="translate(-0.316406 -0.482422)"/>
</clipPath>
</defs>
</svg>
