<svg width="20" height="20" viewBox="0 0 20 20" fill="none" xmlns="http://www.w3.org/2000/svg">
<circle cx="10" cy="10" r="9.5" fill="white" stroke="#00C65E"/>
<path d="M8.87114 11.9312L8.50943 4.52191C8.49914 4.31642 8.53076 4.11099 8.60237 3.91811C8.67398 3.72523 8.78408 3.54894 8.92597 3.39995C9.06787 3.25096 9.23858 3.1324 9.42774 3.05147C9.6169 2.97054 9.82055 2.92894 10.0263 2.9292V2.9292C10.2318 2.92977 10.4351 2.97193 10.6238 3.05315C10.8126 3.13436 10.983 3.25294 11.1247 3.40176C11.2664 3.55057 11.3766 3.72653 11.4485 3.91904C11.5204 4.11155 11.5526 4.31662 11.5432 4.52191L11.1581 11.9312C11.1581 12.573 10.8722 12.8763 10.5105 12.8763H9.58873C9.20952 12.8997 8.93532 12.713 8.87114 11.9312ZM8.87114 14.5274C9.02121 14.3825 9.19848 14.2687 9.39273 14.1926C9.58698 14.1165 9.79438 14.0796 10.003 14.084C10.2106 14.0797 10.4171 14.1167 10.6104 14.1928C10.8037 14.2689 10.9799 14.3826 11.1289 14.5274C11.2761 14.6593 11.3939 14.8207 11.4745 15.0011C11.5551 15.1816 11.5968 15.377 11.5968 15.5746C11.5968 15.7722 11.5551 15.9676 11.4745 16.1481C11.3939 16.3285 11.2761 16.49 11.1289 16.6218C10.9802 16.7674 10.8042 16.882 10.6109 16.9591C10.4176 17.0362 10.211 17.0743 10.003 17.0711C9.79401 17.0744 9.58647 17.0364 9.39224 16.9593C9.19802 16.8822 9.02093 16.7675 8.87114 16.6218C8.72394 16.49 8.6062 16.3285 8.52559 16.1481C8.44498 15.9676 8.40332 15.7722 8.40332 15.5746C8.40332 15.377 8.44498 15.1816 8.52559 15.0011C8.6062 14.8207 8.72394 14.6593 8.87114 14.5274V14.5274Z" stroke="#00C65E" stroke-width="0.7" stroke-miterlimit="10"/>
</svg>
